2.2Hzlow3min_grf.mot
version=1
nRows=12
nColumns 19
inDegrees=yes
endheader
time	1_ground_force_vx	1_ground_force_vy	1_ground_force_vz	1_ground_force_px	1_ground_force_py	1_ground_force_pz	1_ground_torque_x	1_ground_torque_y	1_ground_torque_z	2_ground_force_vx	2_ground_force_vy	2_ground_force_vz	2_ground_force_px	2_ground_force_py	2_ground_force_pz	2_ground_torque_x	2_ground_torque_y	2_ground_torque_z
            0.005000	          -23.844526	          619.239174	          -46.582161	           -0.238246	            0.006173	           -0.393918	           -0.033530	            0.870759	           -0.065503	          -45.397678	          606.151464	           79.848762	           -0.218323	            0.005621	           -0.676926	            0.186470	           -2.489751	           -0.327977
            0.005500	          -22.881872	          620.140401	          -46.534827	           -0.238223	            0.006173	           -0.393927	           -0.035299	            0.956676	           -0.071788	          -45.490614	          605.966087	           80.082777	           -0.218395	            0.005622	           -0.677196	            0.181190	           -2.413580	           -0.318972
            0.006000	          -22.973330	          620.139990	          -46.442887	           -0.238355	            0.006172	           -0.393737	           -0.033984	            0.917364	           -0.068702	          -45.107737	          603.756915	           80.309382	           -0.218223	            0.005621	           -0.676723	            0.177706	           -2.378553	           -0.316386
            0.006500	          -22.973249	          620.320089	          -46.396262	           -0.238208	            0.006173	           -0.393782	           -0.032291	            0.871910	           -0.065214	          -45.059596	          603.389015	           80.214191	           -0.218258	            0.005622	           -0.676914	            0.173443	           -2.322564	           -0.308760
            0.007000	          -22.560778	          620.320366	          -46.443138	           -0.238218	            0.006172	           -0.393750	           -0.029473	            0.810373	           -0.060672	          -44.825201	          603.388690	           80.542581	           -0.218312	            0.005623	           -0.677316	            0.175104	           -2.357061	           -0.314629
            0.007500	          -22.102657	          620.140748	          -46.582621	           -0.238328	            0.006172	           -0.393622	           -0.031798	            0.892156	           -0.067015	          -44.725421	          601.730864	           80.771275	           -0.218259	            0.005622	           -0.677146	            0.168178	           -2.262650	           -0.303719
            0.008000	          -21.918749	          620.320096	          -46.353019	           -0.238440	            0.006173	           -0.393775	           -0.030497	            0.863100	           -0.064495	          -44.345367	          600.259594	           80.625068	           -0.218235	            0.005623	           -0.677221	            0.174516	           -2.362249	           -0.317290
            0.008500	          -21.781916	          619.780733	          -46.676674	           -0.238280	            0.006173	           -0.393859	           -0.031045	            0.883345	           -0.066526	          -44.153856	          599.154422	           80.902615	           -0.218278	            0.005622	           -0.677064	            0.170847	           -2.318336	           -0.313040
            0.009000	          -21.276213	          619.417878	          -46.129201	           -0.238318	            0.006173	           -0.393928	           -0.028222	            0.821631	           -0.061188	          -43.542873	          598.604640	           80.759608	           -0.218326	            0.005623	           -0.677486	            0.169697	           -2.332899	           -0.314739
            0.009500	          -20.817523	          619.237400	          -46.039400	           -0.238352	            0.006173	           -0.393808	           -0.026778	            0.796529	           -0.059221	          -43.489978	          596.946980	           80.894451	           -0.218247	            0.005623	           -0.677286	            0.161724	           -2.219830	           -0.300817
            0.010000	          -20.680432	          619.778782	          -46.174986	           -0.238370	            0.006172	           -0.393604	           -0.025866	            0.775176	           -0.057752	          -43.204977	          595.843698	           80.702676	           -0.218286	            0.005623	           -0.677281	            0.160438	           -2.212614	           -0.299682
            0.010500	          -20.313347	          619.778264	          -46.038333	           -0.238400	            0.006172	           -0.393687	           -0.027042	            0.825084	           -0.061289	          -42.918392	          594.370248	           81.072725	           -0.218063	            0.005624	           -0.677530	            0.157934	           -2.187198	           -0.298336
